<?xml version="1.0" encoding="UTF-8" standalone="no"?>
<svg
   xmlns:dc="http://purl.org/dc/elements/1.1/"
   xmlns:cc="http://creativecommons.org/ns#"
   xmlns:rdf="http://www.w3.org/1999/02/22-rdf-syntax-ns#"
   xmlns:svg="http://www.w3.org/2000/svg"
   xmlns="http://www.w3.org/2000/svg"
   xmlns:sodipodi="http://sodipodi.sourceforge.net/DTD/sodipodi-0.dtd"
   xmlns:inkscape="http://www.inkscape.org/namespaces/inkscape"
   height="400"
   width="400"
   version="1.1"
   viewBox="0 0 400 400"
   id="svg2"
   inkscape:version="0.91 r13725"
   sodipodi:docname="logo_nutty.svg"
   inkscape:export-filename="/srv/_logos/logo_nutty.png"
   inkscape:export-xdpi="90"
   inkscape:export-ydpi="90">
  <metadata
     id="metadata12">
    <rdf:RDF>
      <cc:Work
         rdf:about="">
        <dc:format>image/svg+xml</dc:format>
        <dc:type
           rdf:resource="http://purl.org/dc/dcmitype/StillImage" />
      </cc:Work>
    </rdf:RDF>
  </metadata>
  <defs
     id="defs10" />
  <sodipodi:namedview
     pagecolor="#ffffff"
     bordercolor="#666666"
     borderopacity="1"
     objecttolerance="10"
     gridtolerance="10"
     guidetolerance="10"
     inkscape:pageopacity="0"
     inkscape:pageshadow="2"
     inkscape:window-width="1209"
     inkscape:window-height="770"
     id="namedview8"
     showgrid="false"
     inkscape:zoom="1.668772"
     inkscape:cx="214.00073"
     inkscape:cy="241.41204"
     inkscape:window-x="97"
     inkscape:window-y="0"
     inkscape:window-maximized="0"
     inkscape:current-layer="svg2" />
  <path
     style="color-rendering:auto;text-decoration-color:#000000;color:#000000;isolation:auto;mix-blend-mode:normal;shape-rendering:auto;solid-color:#000000;block-progression:tb;text-decoration-line:none;image-rendering:auto;white-space:normal;text-indent:0;text-transform:none;text-decoration-style:solid"
     d="m200.29 25.004c-2.707-0.05192-5.3776 0.62973-7.7285 1.9727l-140 80.003c-4.675 2.67-7.559 7.64-7.56 13.02v160c0.000526 5.3828 2.885 10.353 7.5586 13.023l140 80c4.6112 2.6343 10.272 2.6343 14.883 0l140-80c4.68-2.67 7.56-7.64 7.56-13.02v-160c-0.00052-5.3828-2.885-10.353-7.5586-13.023l-140-80c-2.1819-1.2464-4.642-1.9247-7.1543-1.9727z"
     fill-rule="evenodd"
     fill="#f45b93"
     id="path4" />
  <path
     style="color:#000000;text-indent:0;text-decoration:none;text-decoration-line:none;text-decoration-style:solid;text-decoration-color:#000000;text-transform:none;block-progression:tb;white-space:normal;isolation:auto;mix-blend-mode:normal;solid-color:#000000;fill:#ffffff;fill-rule:evenodd;color-rendering:auto;image-rendering:auto;shape-rendering:auto"
     d="m 203.88,107.54 c -0.4213,-0.011 -0.8541,10e-4 -1.2949,0.041 -2.645,0.2391 -5.6103,1.4434 -8.4726,4.2031 l -0.0137,0.0117 c -1.6546,1.6251 -3.5095,3.8789 -4.6836,7.9942 -1.0002,3.5058 -1.6108,8.3954 -1.6758,15.779 -28.7,2.3675 -42.567,13.493 -54.393,27.41 -1.3558,1.5971 -0.26396,4.0535 1.8301,4.1172 1.1593,0.0347 2.1893,-0.11429 3.1641,-0.28711 -11.938,15.146 -16.162,30.941 -15.84,45.346 0.0345,1.5304 1.4238,2.6708 2.9316,2.4062 8.6843,-1.5256 18.812,-5.7857 26.383,-14.408 2.1465,5.7544 4.6319,10.972 11.105,15.604 0.49101,0.35114 1.0925,0.51278 1.6934,0.45508 6.7185,-0.64074 13.785,-4.805 20.416,-10.424 5.9376,-5.0313 11.468,-11.299 15.676,-17.658 4.2076,6.3591 9.7401,12.627 15.678,17.658 6.631,5.6189 13.698,9.7831 20.416,10.424 0.60088,0.0577 1.2024,-0.10394 1.6934,-0.45508 6.4736,-4.6315 8.959,-9.8491 11.105,-15.604 7.5712,8.6225 17.698,12.883 26.383,14.408 1.5078,0.26451 2.8971,-0.87583 2.9316,-2.4062 0.32214,-14.405 -3.9022,-30.2 -15.84,-45.346 0.97473,0.17282 2.0048,0.32181 3.1641,0.28711 2.094,-0.0637 3.1859,-2.5201 1.8301,-4.1172 -12.92,-15.204 -28.27,-27.081 -62.746,-27.84 -0.46635,-6.8436 -0.29308,-14.898 6.7461,-21.592 0.94807,-0.90324 0.78692,-2.4587 -0.32618,-3.1484 -1.0758,-0.66685 -3.4534,-2.3072 -6.6328,-2.7578 -0.39742,-0.0563 -0.80722,-0.0905 -1.2285,-0.10156 z m -3.9688,91.082 -1.6934,1.7246 c -8.8907,9.0556 -14.795,17.212 -34.791,22.07 -3.9804,-1.6878 -9.7345,-5.1426 -12.309,-10.533 l -1.3047,-2.7305 -2.4356,1.7969 c -2.4802,1.8299 -7.6034,4.5858 -13.152,6.3965 l -1.7676,0.57617 0.043,1.8594 c 0.59465,25.08 15.784,42.611 31.402,53.924 15.618,11.313 31.824,16.667 35.346,17.777 l 0.77734,0.24414 0.77149,-0.25977 c 3.5875,-1.2055 19.781,-6.443 35.295,-17.609 15.514,-11.166 30.614,-28.552 31.584,-53.779 l 0.0664,-1.7695 -1.6465,-0.65235 c -1.8482,-0.73127 -9.9207,-5.2023 -12.984,-7.1445 l -2.1445,-1.3613 -1.3262,2.166 c -2.2552,3.6838 -6.0778,9.1284 -11.811,10.559 -20.783,-4.8438 -26.223,-12.516 -36.139,-21.619 l -1.7812,-1.6348 z"
     id="path6"
     inkscape:connector-curvature="0"
     sodipodi:nodetypes="ccccscccccccccscccccccccccccccccccccccccscccscccccccccc" />
</svg>
